<svg xmlns="http://www.w3.org/2000/svg" viewBox="0 0 494.92 251.78"><defs><style>.cls-1{fill:#1d202c;}.cls-2{fill:#00aeb5;}</style></defs><g id="Calque_2" data-name="Calque 2"><g id="Layer_1" data-name="Layer 1"><path class="cls-1" d="M154.34,86.36c0,1.65-.06,4.16-.15,7.49H.41c-.08-2-.41-3.74-.41-5.78q0-41.83,21.73-65T78.17,0Q111.76,0,133,22.64T154.34,86.36ZM122.47,120h30.86q-6.95,25.31-25.63,39.33t-47.93,14q-36.73,0-58.24-22.39c-8-8.34-13.4-18.85-16.9-31H35.12a49.89,49.89,0,0,0,9.8,15.74q14,14.52,35,14.52,15.61,0,26.65-8.13C113.08,137.31,118.34,129.82,122.47,120Zm1.93-49.22q-1.91-20.94-10.73-31.4Q100.11,23.11,78.51,23.11q-19.56,0-32.88,13T30.89,70.74Z"/><path class="cls-2" d="M245.85,148.16l8.91,25.13H230.09L165.4,7.9h30.75Zm81-140.26L271.7,147.38,259.15,112,297.39,7.9Z"/><path class="cls-1" d="M494.92,84.45q0,32-9.7,50.36A68.36,68.36,0,0,1,457,163.31a82.85,82.85,0,0,1-40.43,10.15q-35.16,0-56.84-22.33c-.23-.25-.39-.54-.6-.79h57.42q21.13,0,35.16-15.92t14-48.57q0-30.78-14.1-46.61T416.57,23.38q-21.29,0-35.31,15.77t-14,47.63c0,16.93,3.11,30.31,9,40.45H345c-4.47-11.53-6.94-24.87-6.94-40.45q0-46.06,25.85-68.24Q385.49.12,416.57.11q34.5,0,56.43,22.4T494.92,84.45Z"/><path class="cls-1" d="M22.76,249.08a1.45,1.45,0,0,1-1.12-.43,1.57,1.57,0,0,1-.39-1.09V204.4a1.55,1.55,0,0,1,.39-1.09,1.45,1.45,0,0,1,1.12-.43h3.5a1.42,1.42,0,0,1,1.12.43,1.51,1.51,0,0,1,.4,1.09v43.16a1.53,1.53,0,0,1-.4,1.09,1.42,1.42,0,0,1-1.12.43Z"/><path class="cls-1" d="M50.88,249.08a1.47,1.47,0,0,1-1.52-1.52V208.75H36.69a1.47,1.47,0,0,1-1.09-.43,1.44,1.44,0,0,1-.43-1.09v-2.77a1.53,1.53,0,0,1,.43-1.15,1.47,1.47,0,0,1,1.09-.43H68.5a1.55,1.55,0,0,1,1.16.43,1.57,1.57,0,0,1,.43,1.15v2.77a1.48,1.48,0,0,1-.43,1.09,1.55,1.55,0,0,1-1.16.43H55.9v38.81a1.51,1.51,0,0,1-.43,1.09,1.55,1.55,0,0,1-1.16.43Z"/><path class="cls-2" d="M77.28,251.78a1.46,1.46,0,0,1-1.12-.42,1.53,1.53,0,0,1-.4-1.09v-2.51a1.53,1.53,0,0,1,.4-1.09,1.43,1.43,0,0,1,1.12-.43h38.28a1.47,1.47,0,0,1,1.52,1.52v2.51a1.47,1.47,0,0,1-.43,1.09,1.5,1.5,0,0,1-1.09.42Z"/><path class="cls-1" d="M141.7,249.74a23.12,23.12,0,0,1-9.64-1.78,14.93,14.93,0,0,1-6-4.59,10.46,10.46,0,0,1-2.21-5.91,1.32,1.32,0,0,1,.42-1,1.4,1.4,0,0,1,1-.43h3.36a1.62,1.62,0,0,1,1.19.39,2,2,0,0,1,.53.93,8.06,8.06,0,0,0,1.65,3.13,9.31,9.31,0,0,0,3.6,2.58,15.23,15.23,0,0,0,6,1q5.67,0,8.34-2a6.4,6.4,0,0,0,2.68-5.38A5.06,5.06,0,0,0,151.3,233a12.48,12.48,0,0,0-4.32-2.54c-1.94-.75-4.45-1.56-7.53-2.45a43.26,43.26,0,0,1-8-3,11.92,11.92,0,0,1-4.72-4.09,11.35,11.35,0,0,1-1.55-6.21,11,11,0,0,1,1.91-6.37,13,13,0,0,1,5.54-4.45,21,21,0,0,1,8.72-1.65,21.34,21.34,0,0,1,7.16,1.09,15.22,15.22,0,0,1,5.11,2.9,13.26,13.26,0,0,1,3.1,3.9,9.61,9.61,0,0,1,1.13,4,1.54,1.54,0,0,1-.33.9,1.29,1.29,0,0,1-1.06.42H153a2,2,0,0,1-1-.26,1.65,1.65,0,0,1-.75-1,6.69,6.69,0,0,0-3-4.55,11.66,11.66,0,0,0-6.86-1.85,13.1,13.1,0,0,0-7,1.65,6.26,6.26,0,0,0-1.42,8.88,10.19,10.19,0,0,0,4,2.6,69.07,69.07,0,0,0,7.07,2.38,52.28,52.28,0,0,1,8.64,3.07,12.08,12.08,0,0,1,5,4,10.87,10.87,0,0,1,1.62,6.17,11.53,11.53,0,0,1-2.18,7.1,13.58,13.58,0,0,1-6.1,4.49A25.28,25.28,0,0,1,141.7,249.74Z"/><path class="cls-1" d="M184.53,249.74a22,22,0,0,1-9.7-2,13.7,13.7,0,0,1-6.21-6,23.72,23.72,0,0,1-2.44-10.2q-.06-2.91-.06-5.58c0-1.78,0-3.64.06-5.57a22.61,22.61,0,0,1,2.54-10.14,14.56,14.56,0,0,1,6.34-6.07,23.15,23.15,0,0,1,18.87,0,14.74,14.74,0,0,1,6.37,6.07,21.73,21.73,0,0,1,2.51,10.14c.09,1.93.13,3.79.13,5.57s0,3.64-.13,5.58a22.63,22.63,0,0,1-2.41,10.2,13.84,13.84,0,0,1-6.23,6A22,22,0,0,1,184.53,249.74Zm0-5.61a11.46,11.46,0,0,0,8.22-3q3.19-3,3.46-9.83c.09-2,.13-3.75.13-5.31s0-3.31-.13-5.25a16.43,16.43,0,0,0-1.68-7.39,9.81,9.81,0,0,0-4.13-4.16,13.71,13.71,0,0,0-11.74,0,9.75,9.75,0,0,0-4.13,4.16,16.93,16.93,0,0,0-1.75,7.39c0,1.94-.07,3.68-.07,5.25s0,3.33.07,5.31q.27,6.8,3.5,9.83A11.53,11.53,0,0,0,184.53,244.13Z"/><path class="cls-1" d="M214.1,249.08a1.46,1.46,0,0,1-1.13-.43,1.57,1.57,0,0,1-.39-1.09V204.4a1.55,1.55,0,0,1,.39-1.09,1.46,1.46,0,0,1,1.13-.43h3.49a1.47,1.47,0,0,1,1.52,1.52v38.94H241a1.55,1.55,0,0,1,1.16.43,1.57,1.57,0,0,1,.43,1.15v2.64a1.51,1.51,0,0,1-.43,1.09,1.55,1.55,0,0,1-1.16.43Z"/><path class="cls-1" d="M266,249.74a21.26,21.26,0,0,1-9.54-2,13.69,13.69,0,0,1-6.14-6,22.33,22.33,0,0,1-2.14-10.46v-26.8a1.64,1.64,0,0,1,.39-1.15,1.46,1.46,0,0,1,1.13-.43h3.36a1.48,1.48,0,0,1,1.59,1.58v26.93q0,6.47,3,9.57a12.66,12.66,0,0,0,16.6,0q3.07-3.11,3.07-9.57V204.46a1.53,1.53,0,0,1,.43-1.15,1.45,1.45,0,0,1,1.09-.43h3.43a1.47,1.47,0,0,1,1.09.43,1.57,1.57,0,0,1,.43,1.15v26.8a22.32,22.32,0,0,1-2.15,10.46,13.7,13.7,0,0,1-6.1,6A21.21,21.21,0,0,1,266,249.74Z"/><path class="cls-1" d="M306.5,249.08a1.44,1.44,0,0,1-1.09-.43,1.47,1.47,0,0,1-.43-1.09V208.75H292.3a1.47,1.47,0,0,1-1.51-1.52v-2.77a1.53,1.53,0,0,1,.43-1.15,1.43,1.43,0,0,1,1.08-.43h31.82a1.48,1.48,0,0,1,1.58,1.58v2.77a1.44,1.44,0,0,1-.43,1.09,1.53,1.53,0,0,1-1.15.43H311.51v38.81a1.47,1.47,0,0,1-.43,1.09,1.55,1.55,0,0,1-1.15.43Z"/><path class="cls-1" d="M334.61,249.08a1.43,1.43,0,0,1-1.12-.43,1.53,1.53,0,0,1-.4-1.09V204.4a1.51,1.51,0,0,1,.4-1.09,1.43,1.43,0,0,1,1.12-.43h3.5a1.43,1.43,0,0,1,1.12.43,1.56,1.56,0,0,1,.4,1.09v43.16a1.57,1.57,0,0,1-.4,1.09,1.43,1.43,0,0,1-1.12.43Z"/><path class="cls-1" d="M367.74,249.74a22.08,22.08,0,0,1-9.7-2,13.68,13.68,0,0,1-6.2-6,23.58,23.58,0,0,1-2.45-10.2q-.06-2.91-.06-5.58c0-1.78,0-3.64.06-5.57a22.61,22.61,0,0,1,2.55-10.14,14.54,14.54,0,0,1,6.33-6.07,23.17,23.17,0,0,1,18.88,0,14.79,14.79,0,0,1,6.37,6.07,21.73,21.73,0,0,1,2.5,10.14c.09,1.93.14,3.79.14,5.57s-.05,3.64-.14,5.58a22.77,22.77,0,0,1-2.4,10.2,13.91,13.91,0,0,1-6.24,6A22,22,0,0,1,367.74,249.74Zm0-5.61a11.44,11.44,0,0,0,8.22-3q3.19-3,3.46-9.83c.09-2,.14-3.75.14-5.31s-.05-3.31-.14-5.25a16.3,16.3,0,0,0-1.68-7.39,9.79,9.79,0,0,0-4.12-4.16,13.73,13.73,0,0,0-11.75,0,9.81,9.81,0,0,0-4.13,4.16A17.07,17.07,0,0,0,356,220.7c0,1.94-.06,3.68-.06,5.25s0,3.33.06,5.31q.27,6.8,3.5,9.83A11.56,11.56,0,0,0,367.74,244.13Z"/><path class="cls-1" d="M397.31,249.08a1.42,1.42,0,0,1-1.12-.43,1.53,1.53,0,0,1-.4-1.09v-43.1a1.6,1.6,0,0,1,.4-1.15,1.42,1.42,0,0,1,1.12-.43h3a1.71,1.71,0,0,1,1.19.36,1.74,1.74,0,0,1,.47.56l21.91,33.66v-33a1.64,1.64,0,0,1,.39-1.15,1.45,1.45,0,0,1,1.12-.43h3.17a1.55,1.55,0,0,1,1.16.43,1.57,1.57,0,0,1,.43,1.15v43a1.62,1.62,0,0,1-.43,1.13,1.42,1.42,0,0,1-1.09.46h-3.17a1.39,1.39,0,0,1-1.09-.4l-.49-.53-21.85-33.33v32.74a1.47,1.47,0,0,1-.43,1.09,1.55,1.55,0,0,1-1.15.43Z"/><path class="cls-1" d="M456.51,249.74a23,23,0,0,1-9.63-1.78,15,15,0,0,1-6-4.59,10.61,10.61,0,0,1-2.21-5.91,1.29,1.29,0,0,1,.43-1,1.39,1.39,0,0,1,1-.43h3.37a1.64,1.64,0,0,1,1.19.39,2,2,0,0,1,.52.93,8.23,8.23,0,0,0,1.66,3.13,9.27,9.27,0,0,0,3.59,2.58,15.27,15.27,0,0,0,6,1c3.78,0,6.57-.67,8.35-2a6.42,6.42,0,0,0,2.67-5.38,5,5,0,0,0-1.42-3.73,12.3,12.3,0,0,0-4.32-2.54c-1.94-.75-4.44-1.56-7.52-2.45a43.11,43.11,0,0,1-8-3,12.06,12.06,0,0,1-4.72-4.09,11.44,11.44,0,0,1-1.55-6.21,11.09,11.09,0,0,1,1.91-6.37,13.06,13.06,0,0,1,5.55-4.45,20.92,20.92,0,0,1,8.71-1.65,21.26,21.26,0,0,1,7.16,1.09,15.27,15.27,0,0,1,5.12,2.9,13.42,13.42,0,0,1,3.1,3.9,9.59,9.59,0,0,1,1.12,4,1.47,1.47,0,0,1-.33.9,1.26,1.26,0,0,1-1.06.42H467.8a2,2,0,0,1-1-.26,1.7,1.7,0,0,1-.76-1,6.66,6.66,0,0,0-3-4.55,11.64,11.64,0,0,0-6.86-1.85,13.09,13.09,0,0,0-7,1.65,6.23,6.23,0,0,0-1.42,8.88,10,10,0,0,0,4,2.6,68.77,68.77,0,0,0,7.06,2.38,52.77,52.77,0,0,1,8.65,3.07,12.21,12.21,0,0,1,5,4,10.87,10.87,0,0,1,1.62,6.17,11.59,11.59,0,0,1-2.18,7.1,13.61,13.61,0,0,1-6.11,4.49A25.2,25.2,0,0,1,456.51,249.74Z"/></g></g></svg>