<svg xmlns="http://www.w3.org/2000/svg" viewBox="0 0 358.49 76.81"><defs><style>.cls-1{fill:#003670;}.cls-2{fill:none;stroke:#ff6900;stroke-miterlimit:10;stroke-width:10px;}</style></defs><g id="Calque_2" data-name="Calque 2"><g id="Layer_1" data-name="Layer 1"><path class="cls-1" d="M9.84,40.8V75.48q-.72.24-1.92.54a10.88,10.88,0,0,1-2.64.3Q0,76.32,0,71.88v-69a14.44,14.44,0,0,1,1.86-.54A11.63,11.63,0,0,1,4.56,2Q9.84,2,9.84,6.48V36.36l33-34.2a7.11,7.11,0,0,1,4.68,1.56,4.44,4.44,0,0,1,1.56,3.36A5.26,5.26,0,0,1,48.24,10a17.51,17.51,0,0,1-2.4,2.88L19.92,38.28Q30.84,49,38.82,57.3T52.56,70.8a6.84,6.84,0,0,1-1.62,4.14,4.59,4.59,0,0,1-3.54,1.5,6.21,6.21,0,0,1-3.66-1.14,25.35,25.35,0,0,1-3.3-2.82Z"/><path class="cls-1" d="M231.09,40.8V75.48q-.72.24-1.92.54a10.88,10.88,0,0,1-2.64.3q-5.28,0-5.28-4.44v-69a14.44,14.44,0,0,1,1.86-.54,11.63,11.63,0,0,1,2.7-.3q5.28,0,5.28,4.44V36.36l33-34.2a7.11,7.11,0,0,1,4.68,1.56,4.44,4.44,0,0,1,1.56,3.36,5.26,5.26,0,0,1-.84,2.88,17.51,17.51,0,0,1-2.4,2.88L241.17,38.28q10.92,10.68,18.9,19t13.74,13.5a6.84,6.84,0,0,1-1.62,4.14,4.59,4.59,0,0,1-3.54,1.5A6.21,6.21,0,0,1,265,75.3a25.35,25.35,0,0,1-3.3-2.82Z"/><path class="cls-1" d="M286.21,75.9a10.88,10.88,0,0,1-2.64.3q-5.28,0-5.28-4.44V2.88a14.44,14.44,0,0,1,1.86-.54,11.63,11.63,0,0,1,2.7-.3Q288,2,288,6.48V75.36A15,15,0,0,1,286.21,75.9Z"/><path class="cls-1" d="M342.29,56.16H310.13q-.84,2.4-1.8,5.22t-1.86,5.52q-.9,2.7-1.74,5t-1.32,3.9a10,10,0,0,1-4,.72,5.94,5.94,0,0,1-3.42-1,3.7,3.7,0,0,1-1.5-3.3,7.35,7.35,0,0,1,.36-2.22q.36-1.14.84-2.46l4.62-13q2.82-7.92,6.12-16.86t6.72-18q3.42-9.06,6.3-16.26a14.88,14.88,0,0,1,2.88-1,16.27,16.27,0,0,1,4-.48,14.88,14.88,0,0,1,4.62.72,4,4,0,0,1,2.82,2.4q2.88,7,6.18,15.9t6.66,18.3Q350,48.72,353,57.78t5.46,16.38a7.52,7.52,0,0,1-2.28,1.74,6.62,6.62,0,0,1-3,.66,5.24,5.24,0,0,1-3.48-1,7.81,7.81,0,0,1-2-3.42Zm-16.08-46q-1.32,3.6-3,8.22t-3.48,9.66q-1.8,5-3.6,10.2t-3.36,9.84h27q-1.8-5.4-3.72-10.86t-3.66-10.5q-1.74-5-3.24-9.3t-2.46-7.26Z"/><path class="cls-2" d="M180,4.7h0a32.49,32.49,0,0,1,32.49,32.49v2A32.49,32.49,0,0,1,180,71.7H147.48a0,0,0,0,1,0,0V37.19A32.49,32.49,0,0,1,180,4.7Z" transform="translate(81.38 -117.14) rotate(45.61)"/><path class="cls-2" d="M86,5.12h0a32.49,32.49,0,0,1,32.49,32.49v2A32.49,32.49,0,0,1,86,72.12H53.56a0,0,0,0,1,0,0V37.61A32.49,32.49,0,0,1,86,5.12Z" transform="translate(118.64 127.12) rotate(-134.39)"/></g></g></svg>