<svg id="Layer_1" data-name="Layer 1" xmlns="http://www.w3.org/2000/svg" viewBox="0 0 494.91 251.78"><defs><style>.cls-1{fill:#1d202c;}.cls-2{fill:#00aeb5;}</style></defs><title>new_evo</title><path class="cls-1" d="M336.08,267.24c0,1.66-.06,4.16-0.15,7.49H182.16c-0.08-2-.41-3.74-0.41-5.78q0-41.84,21.73-65t56.44-23.11q33.59,0,54.87,22.64T336.08,267.24Zm-31.86,33.6h30.86q-7,25.31-25.63,39.33t-47.93,14q-36.74,0-58.25-22.4c-8-8.34-13.4-18.85-16.9-31h30.49a49.77,49.77,0,0,0,9.8,15.73q14,14.53,35,14.52,15.61,0,26.65-8.13C294.83,318.2,300.09,310.7,304.22,300.84Zm1.92-49.22q-1.9-20.95-10.72-31.4Q281.85,204,260.26,204q-19.56,0-32.88,13t-14.74,34.68h93.51Z" transform="translate(-181.75 -180.89)"/><path class="cls-2" d="M427.59,329l8.91,25.13H411.83L347.14,188.78h30.75Zm81-140.26L453.44,328.27,440.9,292.84l38.23-104.06h29.46Z" transform="translate(-181.75 -180.89)"/><path class="cls-1" d="M676.66,265.34q0,32-9.69,50.36a68.37,68.37,0,0,1-28.22,28.5,82.82,82.82,0,0,1-40.43,10.15q-35.15,0-56.84-22.33c-0.23-.25-0.39-0.54-0.6-0.79H598.3q21.13,0,35.16-15.92t14-48.56q0-30.78-14.1-46.62t-35.08-15.86Q577,204.27,563,220t-14,47.62c0,16.93,3.1,30.31,9,40.46H526.75c-4.48-11.53-6.95-24.87-6.95-40.46q0-46.06,25.85-68.24Q567.24,181,598.31,181q34.51,0,56.44,22.4T676.66,265.34Z" transform="translate(-181.75 -180.89)"/><path class="cls-1" d="M204.51,430a1.45,1.45,0,0,1-1.12-.43,1.54,1.54,0,0,1-.4-1.09V385.28a1.55,1.55,0,0,1,.4-1.09,1.45,1.45,0,0,1,1.12-.43H208a1.45,1.45,0,0,1,1.12.43,1.55,1.55,0,0,1,.4,1.09v43.16a1.54,1.54,0,0,1-.4,1.09A1.45,1.45,0,0,1,208,430h-3.5Z" transform="translate(-181.75 -180.89)"/><path class="cls-1" d="M232.63,430a1.47,1.47,0,0,1-1.52-1.52V389.64H218.44a1.47,1.47,0,0,1-1.52-1.52v-2.77a1.56,1.56,0,0,1,.43-1.16,1.48,1.48,0,0,1,1.09-.43h31.81a1.48,1.48,0,0,1,1.58,1.58v2.77a1.47,1.47,0,0,1-.43,1.09,1.56,1.56,0,0,1-1.15.43H237.64v38.81a1.48,1.48,0,0,1-.43,1.09,1.56,1.56,0,0,1-1.15.43h-3.43Z" transform="translate(-181.75 -180.89)"/><path class="cls-2" d="M259,432.67a1.45,1.45,0,0,1-1.12-.43,1.55,1.55,0,0,1-.4-1.09v-2.51a1.55,1.55,0,0,1,.4-1.09,1.45,1.45,0,0,1,1.12-.43h38.28a1.47,1.47,0,0,1,1.52,1.52v2.51a1.47,1.47,0,0,1-1.52,1.52H259Z" transform="translate(-181.75 -180.89)"/><path class="cls-1" d="M323.44,430.62a23.11,23.11,0,0,1-9.64-1.78,15,15,0,0,1-6-4.59,10.55,10.55,0,0,1-2.21-5.91,1.33,1.33,0,0,1,.43-1,1.4,1.4,0,0,1,1-.43h3.37a1.61,1.61,0,0,1,1.19.4,2,2,0,0,1,.53.92,8.16,8.16,0,0,0,1.65,3.13,9.29,9.29,0,0,0,3.6,2.57,15.2,15.2,0,0,0,6,1q5.68,0,8.35-2a6.4,6.4,0,0,0,2.67-5.38,5,5,0,0,0-1.42-3.73,12.48,12.48,0,0,0-4.32-2.54q-2.9-1.12-7.52-2.44a43.54,43.54,0,0,1-8-3,11.93,11.93,0,0,1-4.72-4.09,11.38,11.38,0,0,1-1.55-6.2,11,11,0,0,1,1.91-6.37,13,13,0,0,1,5.54-4.46,20.94,20.94,0,0,1,8.71-1.65,21.42,21.42,0,0,1,7.16,1.09,15.37,15.37,0,0,1,5.12,2.9,13.31,13.31,0,0,1,3.1,3.89,9.65,9.65,0,0,1,1.12,4.06,1.44,1.44,0,0,1-.33.89,1.25,1.25,0,0,1-1.06.43h-3.5a2,2,0,0,1-1-.26,1.71,1.71,0,0,1-.76-1,6.67,6.67,0,0,0-3-4.55,11.73,11.73,0,0,0-6.86-1.85,13.1,13.1,0,0,0-7,1.65,6.25,6.25,0,0,0-1.42,8.88,10.21,10.21,0,0,0,4,2.61,67.93,67.93,0,0,0,7.06,2.38,52.58,52.58,0,0,1,8.65,3.07,12.13,12.13,0,0,1,5,4,10.86,10.86,0,0,1,1.62,6.17,11.57,11.57,0,0,1-2.18,7.09,13.58,13.58,0,0,1-6.1,4.49A25.2,25.2,0,0,1,323.44,430.62Z" transform="translate(-181.75 -180.89)"/><path class="cls-1" d="M366.27,430.62a22.11,22.11,0,0,1-9.7-1.95,13.64,13.64,0,0,1-6.2-6,23.58,23.58,0,0,1-2.44-10.2q-0.07-2.9-.07-5.58t0.07-5.58a22.52,22.52,0,0,1,2.54-10.13,14.55,14.55,0,0,1,6.34-6.07,23.12,23.12,0,0,1,18.88,0,14.75,14.75,0,0,1,6.37,6.07,21.72,21.72,0,0,1,2.51,10.13q0.13,2.9.13,5.58t-0.13,5.58a22.71,22.71,0,0,1-2.41,10.2,13.83,13.83,0,0,1-6.24,6A22,22,0,0,1,366.27,430.62Zm0-5.61a11.46,11.46,0,0,0,8.22-3q3.2-3,3.46-9.83,0.13-3,.13-5.31T378,401.58a16.39,16.39,0,0,0-1.68-7.39,9.78,9.78,0,0,0-4.12-4.16,13.73,13.73,0,0,0-11.75,0,9.78,9.78,0,0,0-4.12,4.16,16.94,16.94,0,0,0-1.75,7.39q-0.07,2.9-.07,5.25t0.07,5.31q0.26,6.8,3.5,9.83A11.57,11.57,0,0,0,366.27,425Z" transform="translate(-181.75 -180.89)"/><path class="cls-1" d="M395.84,430a1.45,1.45,0,0,1-1.12-.43,1.54,1.54,0,0,1-.4-1.09V385.28a1.55,1.55,0,0,1,.4-1.09,1.45,1.45,0,0,1,1.12-.43h3.5a1.47,1.47,0,0,1,1.52,1.52v38.94h21.91a1.48,1.48,0,0,1,1.58,1.58v2.64a1.48,1.48,0,0,1-.43,1.09,1.56,1.56,0,0,1-1.15.43H395.84Z" transform="translate(-181.75 -180.89)"/><path class="cls-1" d="M447.78,430.62a21.26,21.26,0,0,1-9.54-2,13.68,13.68,0,0,1-6.14-6A22.32,22.32,0,0,1,430,412.14v-26.8a1.64,1.64,0,0,1,.4-1.16,1.45,1.45,0,0,1,1.12-.43h3.37a1.48,1.48,0,0,1,1.58,1.58v26.93q0,6.47,3,9.57a12.65,12.65,0,0,0,16.6,0q3.07-3.1,3.07-9.57V385.35a1.56,1.56,0,0,1,.43-1.16,1.48,1.48,0,0,1,1.09-.43h3.43a1.48,1.48,0,0,1,1.09.43,1.56,1.56,0,0,1,.43,1.16v26.8a22.33,22.33,0,0,1-2.15,10.46,13.72,13.72,0,0,1-6.1,6A21.21,21.21,0,0,1,447.78,430.62Z" transform="translate(-181.75 -180.89)"/><path class="cls-1" d="M488.24,430a1.47,1.47,0,0,1-1.52-1.52V389.64H474a1.47,1.47,0,0,1-1.52-1.52v-2.77a1.56,1.56,0,0,1,.43-1.16,1.48,1.48,0,0,1,1.09-.43h31.81a1.48,1.48,0,0,1,1.58,1.58v2.77a1.47,1.47,0,0,1-.43,1.09,1.56,1.56,0,0,1-1.15.43H493.26v38.81a1.48,1.48,0,0,1-.43,1.09,1.56,1.56,0,0,1-1.16.43h-3.43Z" transform="translate(-181.75 -180.89)"/><path class="cls-1" d="M516.36,430a1.45,1.45,0,0,1-1.12-.43,1.54,1.54,0,0,1-.4-1.09V385.28a1.55,1.55,0,0,1,.4-1.09,1.45,1.45,0,0,1,1.12-.43h3.5a1.45,1.45,0,0,1,1.12.43,1.55,1.55,0,0,1,.4,1.09v43.16a1.55,1.55,0,0,1-.4,1.09,1.45,1.45,0,0,1-1.12.43h-3.5Z" transform="translate(-181.75 -180.89)"/><path class="cls-1" d="M549.49,430.62a22.11,22.11,0,0,1-9.7-1.95,13.64,13.64,0,0,1-6.2-6,23.58,23.58,0,0,1-2.44-10.2q-0.07-2.9-.07-5.58t0.07-5.58a22.52,22.52,0,0,1,2.54-10.13,14.55,14.55,0,0,1,6.34-6.07,23.12,23.12,0,0,1,18.88,0,14.75,14.75,0,0,1,6.37,6.07,21.72,21.72,0,0,1,2.51,10.13q0.13,2.9.13,5.58t-0.13,5.58a22.71,22.71,0,0,1-2.41,10.2,13.83,13.83,0,0,1-6.24,6A22,22,0,0,1,549.49,430.62Zm0-5.61a11.46,11.46,0,0,0,8.22-3q3.2-3,3.46-9.83,0.13-3,.13-5.31t-0.13-5.25a16.39,16.39,0,0,0-1.68-7.39,9.78,9.78,0,0,0-4.12-4.16,13.73,13.73,0,0,0-11.75,0,9.78,9.78,0,0,0-4.12,4.16,16.94,16.94,0,0,0-1.75,7.39q-0.07,2.9-.07,5.25t0.07,5.31q0.26,6.8,3.5,9.83A11.57,11.57,0,0,0,549.49,425Z" transform="translate(-181.75 -180.89)"/><path class="cls-1" d="M579.05,430a1.45,1.45,0,0,1-1.12-.43,1.54,1.54,0,0,1-.4-1.09v-43.1a1.64,1.64,0,0,1,.4-1.16,1.45,1.45,0,0,1,1.12-.43h3a1.71,1.71,0,0,1,1.65.92l21.91,33.66v-33a1.64,1.64,0,0,1,.4-1.16,1.45,1.45,0,0,1,1.12-.43h3.17a1.48,1.48,0,0,1,1.58,1.58v43a1.59,1.59,0,0,1-.43,1.12,1.42,1.42,0,0,1-1.09.46h-3.17a1.4,1.4,0,0,1-1.09-.4l-0.49-.53-21.85-33.33v32.74a1.48,1.48,0,0,1-.43,1.09,1.56,1.56,0,0,1-1.16.43h-3.17Z" transform="translate(-181.75 -180.89)"/><path class="cls-1" d="M638.26,430.62a23.11,23.11,0,0,1-9.64-1.78,15,15,0,0,1-6-4.59,10.53,10.53,0,0,1-2.21-5.91,1.32,1.32,0,0,1,.43-1,1.4,1.4,0,0,1,1-.43h3.37a1.62,1.62,0,0,1,1.19.4,2,2,0,0,1,.53.92,8.18,8.18,0,0,0,1.65,3.13,9.28,9.28,0,0,0,3.6,2.57,15.2,15.2,0,0,0,6,1q5.68,0,8.35-2a6.4,6.4,0,0,0,2.67-5.38,5,5,0,0,0-1.42-3.73,12.48,12.48,0,0,0-4.32-2.54q-2.9-1.12-7.52-2.44a43.52,43.52,0,0,1-8-3,11.94,11.94,0,0,1-4.72-4.09,11.38,11.38,0,0,1-1.55-6.2,11,11,0,0,1,1.91-6.37,13,13,0,0,1,5.54-4.46,20.94,20.94,0,0,1,8.71-1.65,21.42,21.42,0,0,1,7.16,1.09,15.37,15.37,0,0,1,5.12,2.9,13.31,13.31,0,0,1,3.1,3.89,9.65,9.65,0,0,1,1.12,4.06,1.44,1.44,0,0,1-.33.89,1.25,1.25,0,0,1-1.06.43h-3.5a2,2,0,0,1-1-.26,1.71,1.71,0,0,1-.76-1,6.67,6.67,0,0,0-3-4.55,11.73,11.73,0,0,0-6.86-1.85,13.1,13.1,0,0,0-7,1.65,6.25,6.25,0,0,0-1.42,8.88,10.21,10.21,0,0,0,4,2.61,67.93,67.93,0,0,0,7.06,2.38,52.58,52.58,0,0,1,8.65,3.07,12.13,12.13,0,0,1,5,4,10.86,10.86,0,0,1,1.62,6.17,11.57,11.57,0,0,1-2.18,7.09,13.58,13.58,0,0,1-6.1,4.49A25.2,25.2,0,0,1,638.26,430.62Z" transform="translate(-181.75 -180.89)"/></svg>