<svg id="Layer_1" data-name="Layer 1" xmlns="http://www.w3.org/2000/svg" viewBox="0 0 467 242.68"><defs><style>.cls-1{fill:#222831;}.cls-2{fill:#00aeb5;}</style></defs><title>LOGO_1</title><path class="cls-1" d="M201,456a1.49,1.49,0,0,1-1.08-.4,1.41,1.41,0,0,1-.41-1.06v-43.3a1.41,1.41,0,0,1,.41-1.06,1.49,1.49,0,0,1,1.08-.4h1.29a1.49,1.49,0,0,1,1.08.4,1.4,1.4,0,0,1,.41,1.06v43.3a1.4,1.4,0,0,1-.41,1.06,1.49,1.49,0,0,1-1.08.4H201Z" transform="translate(-193.5 -215.14)"/><path class="cls-1" d="M228.42,456a1.49,1.49,0,0,1-1.08-.4,1.41,1.41,0,0,1-.41-1.06V413.74H213.5a1.49,1.49,0,0,1-1.08-.4,1.41,1.41,0,0,1-.41-1.06v-1a1.39,1.39,0,0,1,1.49-1.52h31.06a1.58,1.58,0,0,1,1.15.4,1.49,1.49,0,0,1,.41,1.12v1a1.41,1.41,0,0,1-.41,1.06,1.59,1.59,0,0,1-1.15.4H231.2v40.79a1.41,1.41,0,0,1-.41,1.06,1.58,1.58,0,0,1-1.15.4h-1.22Z" transform="translate(-193.5 -215.14)"/><path class="cls-2" d="M254,457.83a1.49,1.49,0,0,1-1.08-.4,1.41,1.41,0,0,1-.41-1.06v-0.92a1.4,1.4,0,0,1,.41-1.06A1.49,1.49,0,0,1,254,454h39a1.49,1.49,0,0,1,1.08.4,1.41,1.41,0,0,1,.41,1.06v0.92a1.41,1.41,0,0,1-.41,1.06,1.49,1.49,0,0,1-1.08.4H254Z" transform="translate(-193.5 -215.14)"/><path class="cls-1" d="M319.62,456.64a22.75,22.75,0,0,1-9.32-1.72,14.58,14.58,0,0,1-5.87-4.42,10.17,10.17,0,0,1-2.17-5.74,1.25,1.25,0,0,1,.41-0.92,1.4,1.4,0,0,1,1-.4H305a1.37,1.37,0,0,1,1.05.4,1.62,1.62,0,0,1,.44.92,7.79,7.79,0,0,0,1.7,3.66,10.64,10.64,0,0,0,4.2,3,18,18,0,0,0,7.19,1.22q6.64,0,9.7-2.34a7.54,7.54,0,0,0,3.05-6.3,5.81,5.81,0,0,0-1.59-4.26,14,14,0,0,0-4.85-2.9q-3.25-1.29-8.34-2.87a50.38,50.38,0,0,1-7.93-3.14,11.45,11.45,0,0,1-4.58-3.93,11,11,0,0,1-1.46-5.94,10.43,10.43,0,0,1,1.83-6,12.51,12.51,0,0,1,5.32-4.26,20.53,20.53,0,0,1,8.51-1.58,21,21,0,0,1,7,1.06,14.79,14.79,0,0,1,4.95,2.8,12.8,12.8,0,0,1,3,3.76,9.44,9.44,0,0,1,1.08,3.93,1.42,1.42,0,0,1-.34.89,1.3,1.3,0,0,1-1.08.43H332.5a1.94,1.94,0,0,1-.85-0.26,1.35,1.35,0,0,1-.64-1.06,7.58,7.58,0,0,0-3.56-5.45,14.25,14.25,0,0,0-8.17-2.15,15.76,15.76,0,0,0-8.2,1.91,7.26,7.26,0,0,0-1.76,10.33,11.76,11.76,0,0,0,4.48,3q3.05,1.29,7.87,2.8a64.48,64.48,0,0,1,8.41,3.17,12.53,12.53,0,0,1,5,3.86,9.93,9.93,0,0,1,1.63,5.91,11.19,11.19,0,0,1-2.07,6.83,12.9,12.9,0,0,1-5.87,4.29A24.94,24.94,0,0,1,319.62,456.64Z" transform="translate(-193.5 -215.14)"/><path class="cls-1" d="M362.48,456.64a21.39,21.39,0,0,1-9.56-1.95,13.34,13.34,0,0,1-6-6,24,24,0,0,1-2.31-10.26q-0.07-3-.07-5.54t0.07-5.54a22.51,22.51,0,0,1,2.44-10.2,14.24,14.24,0,0,1,6.2-6,22.62,22.62,0,0,1,18.51,0,14.44,14.44,0,0,1,6.24,6,21.68,21.68,0,0,1,2.41,10.2q0.14,3,.14,5.54t-0.14,5.54a23,23,0,0,1-2.27,10.26,13.52,13.52,0,0,1-6.07,6A21.39,21.39,0,0,1,362.48,456.64Zm0-4a13.69,13.69,0,0,0,9.6-3.43q3.76-3.43,4-11.15,0.14-3,.14-5.21t-0.14-5.21a18.2,18.2,0,0,0-1.93-8.38,11.07,11.07,0,0,0-4.81-4.72,15.38,15.38,0,0,0-6.88-1.49,15.22,15.22,0,0,0-6.81,1.49,11.06,11.06,0,0,0-4.81,4.72,18.72,18.72,0,0,0-2,8.38q-0.07,3-.07,5.21t0.07,5.21q0.27,7.72,4.07,11.15A13.72,13.72,0,0,0,362.48,452.68Z" transform="translate(-193.5 -215.14)"/><path class="cls-1" d="M392.79,456a1.49,1.49,0,0,1-1.08-.4,1.41,1.41,0,0,1-.41-1.06v-43.3a1.41,1.41,0,0,1,.41-1.06,1.49,1.49,0,0,1,1.08-.4h1.29a1.49,1.49,0,0,1,1.08.4,1.4,1.4,0,0,1,.41,1.06V452H419a1.59,1.59,0,0,1,1.15.4,1.5,1.5,0,0,1,.41,1.12v1a1.4,1.4,0,0,1-.41,1.06,1.58,1.58,0,0,1-1.15.4H392.79Z" transform="translate(-193.5 -215.14)"/><path class="cls-1" d="M444.25,456.64a20.54,20.54,0,0,1-9.39-2,13.52,13.52,0,0,1-6-6.07,22.92,22.92,0,0,1-2.1-10.49V411.3a1.39,1.39,0,0,1,1.49-1.52h1.22a1.58,1.58,0,0,1,1.15.4,1.49,1.49,0,0,1,.41,1.12v27q0,7.39,3.56,10.89t9.66,3.5q6,0,9.6-3.5t3.56-10.89v-27a1.43,1.43,0,0,1,.44-1.12,1.61,1.61,0,0,1,1.12-.4h1.22a1.39,1.39,0,0,1,1.49,1.52v26.8a23.25,23.25,0,0,1-2.07,10.49,13.39,13.39,0,0,1-5.93,6.07A20.49,20.49,0,0,1,444.25,456.64Z" transform="translate(-193.5 -215.14)"/><path class="cls-1" d="M485.89,456a1.48,1.48,0,0,1-1.08-.4,1.4,1.4,0,0,1-.41-1.06V413.74H471a1.49,1.49,0,0,1-1.08-.4,1.41,1.41,0,0,1-.41-1.06v-1a1.39,1.39,0,0,1,1.49-1.52H502a1.58,1.58,0,0,1,1.15.4,1.49,1.49,0,0,1,.41,1.12v1a1.41,1.41,0,0,1-.41,1.06,1.59,1.59,0,0,1-1.15.4H488.67v40.79a1.4,1.4,0,0,1-.41,1.06,1.58,1.58,0,0,1-1.15.4h-1.22Z" transform="translate(-193.5 -215.14)"/><path class="cls-1" d="M513.28,456a1.48,1.48,0,0,1-1.08-.4,1.4,1.4,0,0,1-.41-1.06v-43.3a1.41,1.41,0,0,1,.41-1.06,1.48,1.48,0,0,1,1.08-.4h1.29a1.49,1.49,0,0,1,1.08.4,1.41,1.41,0,0,1,.41,1.06v43.3a1.4,1.4,0,0,1-.41,1.06,1.49,1.49,0,0,1-1.08.4h-1.29Z" transform="translate(-193.5 -215.14)"/><path class="cls-1" d="M544.88,456.64a21.39,21.39,0,0,1-9.56-1.95,13.33,13.33,0,0,1-6-6A24,24,0,0,1,527,438.42q-0.07-3-.07-5.54t0.07-5.54a22.51,22.51,0,0,1,2.44-10.2,14.24,14.24,0,0,1,6.21-6,22.62,22.62,0,0,1,18.51,0,14.44,14.44,0,0,1,6.24,6,21.68,21.68,0,0,1,2.41,10.2q0.13,3,.14,5.54t-0.14,5.54a23,23,0,0,1-2.27,10.26,13.52,13.52,0,0,1-6.07,6A21.39,21.39,0,0,1,544.88,456.64Zm0-4a13.69,13.69,0,0,0,9.59-3.43q3.76-3.43,4-11.15,0.13-3,.13-5.21t-0.13-5.21a18.21,18.21,0,0,0-1.93-8.38,11.07,11.07,0,0,0-4.81-4.72,15.39,15.39,0,0,0-6.88-1.49,15.23,15.23,0,0,0-6.82,1.49,11.06,11.06,0,0,0-4.81,4.72,18.73,18.73,0,0,0-2,8.38q-0.07,3-.07,5.21t0.07,5.21q0.27,7.72,4.07,11.15A13.72,13.72,0,0,0,544.88,452.68Z" transform="translate(-193.5 -215.14)"/><path class="cls-1" d="M575.19,456a1.48,1.48,0,0,1-1.08-.4,1.4,1.4,0,0,1-.41-1.06V411.3a1.39,1.39,0,0,1,1.49-1.52h1.42a1.41,1.41,0,0,1,1,.33,2.47,2.47,0,0,1,.41.46l25,37.22V411.3a1.39,1.39,0,0,1,1.49-1.52h1.22a1.58,1.58,0,0,1,1.15.4,1.49,1.49,0,0,1,.41,1.12v43.16a1.52,1.52,0,0,1-.41,1.09,1.42,1.42,0,0,1-1.08.43h-1.49a1.28,1.28,0,0,1-1-.33l-0.44-.46-25-37.09v36.43a1.4,1.4,0,0,1-.41,1.06,1.58,1.58,0,0,1-1.15.4h-1.22Z" transform="translate(-193.5 -215.14)"/><path class="cls-1" d="M634.32,456.64a22.75,22.75,0,0,1-9.32-1.72,14.59,14.59,0,0,1-5.87-4.42,10.17,10.17,0,0,1-2.17-5.74,1.25,1.25,0,0,1,.41-0.92,1.4,1.4,0,0,1,1-.4h1.36a1.37,1.37,0,0,1,1.05.4,1.63,1.63,0,0,1,.44.92,7.78,7.78,0,0,0,1.69,3.66,10.64,10.64,0,0,0,4.21,3,18,18,0,0,0,7.19,1.22q6.64,0,9.7-2.34a7.53,7.53,0,0,0,3.05-6.3,5.81,5.81,0,0,0-1.59-4.26,14,14,0,0,0-4.85-2.9q-3.25-1.29-8.34-2.87a50.31,50.31,0,0,1-7.93-3.14,11.44,11.44,0,0,1-4.58-3.93,11,11,0,0,1-1.46-5.94,10.43,10.43,0,0,1,1.83-6,12.51,12.51,0,0,1,5.32-4.26,20.54,20.54,0,0,1,8.51-1.58,21,21,0,0,1,7,1.06,14.79,14.79,0,0,1,5,2.8,12.79,12.79,0,0,1,3,3.76,9.45,9.45,0,0,1,1.08,3.93,1.42,1.42,0,0,1-.34.89,1.3,1.3,0,0,1-1.08.43h-1.36a1.94,1.94,0,0,1-.85-0.26,1.35,1.35,0,0,1-.64-1.06,7.58,7.58,0,0,0-3.56-5.45,14.25,14.25,0,0,0-8.17-2.15,15.76,15.76,0,0,0-8.21,1.91A7.26,7.26,0,0,0,624,425.32a11.77,11.77,0,0,0,4.48,3q3.05,1.29,7.87,2.8a64.45,64.45,0,0,1,8.41,3.17,12.53,12.53,0,0,1,5,3.86,9.93,9.93,0,0,1,1.63,5.91,11.19,11.19,0,0,1-2.07,6.83,12.9,12.9,0,0,1-5.87,4.29A25,25,0,0,1,634.32,456.64Z" transform="translate(-193.5 -215.14)"/><path class="cls-1" d="M199.5,392.64a5.77,5.77,0,0,1-4.25-1.75,6.08,6.08,0,0,1-1.75-4.5V223.89a6.09,6.09,0,0,1,1.75-4.5,5.79,5.79,0,0,1,4.25-1.75H313a6,6,0,0,1,6.25,6.25v20a6,6,0,0,1-6.25,6.25H232v39h75.5a6,6,0,0,1,6.25,6.25v18.5a6.22,6.22,0,0,1-1.75,4.38,5.88,5.88,0,0,1-4.5,1.88H232v40h83a6,6,0,0,1,6.25,6.25v20a6,6,0,0,1-6.25,6.25H199.5Z" transform="translate(-193.5 -215.14)"/><path class="cls-2" d="M400.5,392.64a9.68,9.68,0,0,1-6.5-2.12,11.29,11.29,0,0,1-3.5-5.12L338.25,225.14a11.47,11.47,0,0,1-.25-2.25,5.23,5.23,0,0,1,1.5-3.62,4.9,4.9,0,0,1,3.75-1.62h26.5a8,8,0,0,1,5.88,2.13,9.71,9.71,0,0,1,2.63,3.88L417,345.89l38.75-122.25a10,10,0,0,1,2.5-3.87q2-2.12,6-2.12h26.5a5.58,5.58,0,0,1,5.25,5.25,6.16,6.16,0,0,1-.5,2.25L443.25,385.39a11.77,11.77,0,0,1-3.37,5.13,9.59,9.59,0,0,1-6.62,2.13H400.5Z" transform="translate(-193.5 -215.14)"/><path class="cls-1" d="M577.24,215.39q3.79-.25,7.76-0.25m0,0q22,0,38.63,7.75A59.68,59.68,0,0,1,649.75,246q9.5,15.38,10.25,37.88,0.5,11,.5,21.63T660,326.89q-0.75,23-10.12,38.13A57.92,57.92,0,0,1,624,387.64q-16.5,7.5-39,7.5-22.75,0-39.25-7.5A57.16,57.16,0,0,1,520,365q-9.25-15.12-10-38.12-0.25-10.75-.25-21.37T510,283.89q0.75-22.5,10.13-37.87a58.88,58.88,0,0,1,26-23.12,86.38,86.38,0,0,1,31.12-7.5m0,32.94a34.7,34.7,0,0,0-9.24,3.06,27.79,27.79,0,0,0-12,12q-4.5,8.25-5,21.25-0.25,10.75-.25,20.38T551,325.64q0.75,19.5,10,28.25t24,8.75q14.5,0,23.88-8.75t9.88-28.25q0.5-11,.5-20.62t-0.5-20.37q-0.25-13-4.75-21.25a28,28,0,0,0-11.87-12A37.3,37.3,0,0,0,585,247.64a42.49,42.49,0,0,0-7.76.69" transform="translate(-193.5 -215.14)"/></svg>