<svg xmlns="http://www.w3.org/2000/svg" viewBox="0 0 494.92 173.46"><defs><style>.cls-1{fill:#1d202c;}.cls-2{fill:#00aeb5;}</style></defs><g id="Calque_2" data-name="Calque 2"><g id="Layer_1" data-name="Layer 1"><path class="cls-1" d="M154.34,86.36c0,1.65-.06,4.16-.15,7.49H.41c-.08-2-.41-3.74-.41-5.78q0-41.83,21.73-65T78.17,0Q111.76,0,133,22.64T154.34,86.36ZM122.47,120h30.86q-6.95,25.31-25.63,39.33t-47.93,14q-36.73,0-58.24-22.39c-8-8.34-13.4-18.85-16.9-31H35.12a49.89,49.89,0,0,0,9.8,15.74q14,14.52,35,14.52,15.61,0,26.65-8.13C113.08,137.31,118.34,129.82,122.47,120Zm1.93-49.22q-1.91-20.94-10.73-31.4Q100.11,23.11,78.51,23.11q-19.56,0-32.88,13T30.89,70.74Z"/><path class="cls-2" d="M245.85,148.16l8.91,25.13H230.09L165.4,7.9h30.75Zm81-140.26L271.7,147.38,259.15,112,297.39,7.9Z"/><path class="cls-1" d="M494.92,84.45q0,32-9.7,50.36A68.36,68.36,0,0,1,457,163.31a82.85,82.85,0,0,1-40.43,10.15q-35.16,0-56.84-22.33c-.23-.25-.39-.54-.6-.79h57.42q21.13,0,35.16-15.92t14-48.57q0-30.78-14.1-46.61T416.57,23.38q-21.29,0-35.31,15.77t-14,47.63c0,16.93,3.11,30.31,9,40.45H345c-4.47-11.53-6.94-24.87-6.94-40.45q0-46.06,25.85-68.24Q385.49.12,416.57.11q34.5,0,56.43,22.4T494.92,84.45Z"/></g></g></svg>