<?xml version="1.0" standalone="no"?>
<!DOCTYPE svg PUBLIC "-//W3C//DTD SVG 20010904//EN"
 "http://www.w3.org/TR/2001/REC-SVG-20010904/DTD/svg10.dtd">
<svg version="1.0" xmlns="http://www.w3.org/2000/svg"
 width="171.000000pt" height="171.000000pt" viewBox="0 0 171.000000 171.000000"
 preserveAspectRatio="xMidYMid meet">
<metadata>
Created by potrace 1.11, written by Peter Selinger 2001-2013
</metadata>
<g transform="translate(0.000000,171.000000) scale(0.100000,-0.100000)"
fill="#000000" stroke="none">
<path d="M1260 1235 c-105 -22 -133 -42 -329 -233 l-73 -72 -122 123 c-158
161 -198 182 -341 182 -90 -1 -106 -3 -159 -30 -158 -79 -247 -240 -224 -405
27 -198 188 -329 391 -318 135 7 170 30 402 259 l51 49 109 -110 c113 -114
178 -163 237 -181 190 -56 391 37 476 221 22 47 26 70 26 150 1 82 -3 103 -25
150 -77 166 -246 252 -419 215z m198 -122 c58 -29 91 -62 125 -127 31 -58 30
-173 -2 -234 -71 -138 -222 -201 -358 -151 -44 17 -75 42 -168 136 -63 63
-115 118 -115 122 0 14 235 238 267 255 79 40 169 40 251 -1z m-943 0 c30 -16
187 -163 264 -248 7 -8 -225 -227 -269 -253 -39 -24 -56 -27 -130 -27 -76 0
-90 3 -132 28 -111 66 -160 182 -133 308 17 75 93 159 178 197 65 28 161 26
222 -5z"/>
</g>
</svg>
