<?xml version="1.0" standalone="no"?>
<!DOCTYPE svg PUBLIC "-//W3C//DTD SVG 20010904//EN"
 "http://www.w3.org/TR/2001/REC-SVG-20010904/DTD/svg10.dtd">
<svg version="1.0" xmlns="http://www.w3.org/2000/svg"
 width="2062.000000pt" height="2062.000000pt" viewBox="0 0 2062.000000 2062.000000"
 preserveAspectRatio="xMidYMid meet">
<metadata>
Created by potrace 1.11, written by Peter Selinger 2001-2013
</metadata>
<g transform="translate(0.000000,2062.000000) scale(0.100000,-0.100000)"
fill="#000000" stroke="none">
<path d="M2999 13915 c-2 -2 -38 -6 -79 -9 -543 -40 -1064 -215 -1488 -499
-381 -256 -711 -609 -936 -1002 -117 -202 -235 -474 -292 -670 -8 -27 -17 -57
-19 -65 -14 -47 -74 -280 -78 -305 -3 -16 -10 -55 -17 -85 -24 -120 -42 -241
-55 -370 -3 -30 -8 -64 -10 -75 -23 -115 -27 -823 -5 -826 7 0 6290 0 6356 0
33 1 51 5 52 14 3 48 2 562 -2 602 -3 28 -8 91 -11 140 -8 118 -20 237 -31
305 -2 14 -6 45 -9 70 -3 25 -8 56 -11 70 -2 14 -7 39 -10 55 -15 89 -48 243
-74 341 -130 486 -327 883 -614 1234 -61 75 -266 285 -341 350 -358 311 -760
519 -1225 635 -60 15 -152 35 -185 40 -22 3 -65 10 -95 15 -30 5 -77 12 -105
15 -27 3 -70 8 -95 11 -49 7 -616 15 -621 9z m481 -968 c48 -5 131 -17 165
-23 11 -2 34 -7 50 -10 17 -2 48 -10 70 -15 22 -6 47 -12 55 -14 45 -9 188
-63 275 -105 374 -176 684 -483 855 -845 70 -148 157 -434 185 -610 3 -16 7
-41 10 -55 3 -14 7 -45 10 -70 3 -25 8 -61 10 -80 3 -19 7 -60 11 -92 l6 -56
-1947 0 -1947 0 6 79 c4 43 9 87 10 96 6 30 16 97 21 128 5 39 30 156 49 225
127 473 401 863 794 1131 212 145 488 256 737 295 17 3 41 7 55 10 14 2 66 7
115 10 50 4 91 7 92 8 5 4 265 -3 313 -7z"/>
<path d="M17147 13914 c-1 -1 -47 -5 -102 -9 -55 -4 -102 -8 -105 -10 -3 -1
-41 -6 -85 -10 -44 -4 -82 -8 -85 -10 -3 -2 -26 -6 -52 -9 -26 -4 -98 -18
-160 -32 -62 -14 -123 -27 -136 -30 -58 -12 -267 -80 -370 -120 -221 -88 -401
-182 -602 -317 -58 -38 -107 -72 -110 -76 -3 -3 -30 -25 -61 -47 -141 -105
-306 -265 -445 -429 -156 -186 -338 -489 -434 -725 -12 -30 -28 -69 -36 -86
-37 -86 -145 -442 -160 -533 -3 -14 -7 -34 -10 -43 -3 -10 -7 -30 -10 -45 -2
-16 -11 -64 -19 -108 -22 -121 -23 -129 -30 -191 -4 -33 -9 -68 -11 -79 -2
-11 -7 -51 -10 -90 -3 -38 -7 -83 -9 -100 -23 -182 -23 -849 0 -996 2 -13 6
-55 9 -94 9 -93 19 -168 31 -235 2 -14 6 -41 9 -60 9 -59 46 -241 62 -305 9
-33 17 -67 19 -76 15 -74 125 -413 139 -427 7 -6 1296 -8 1297 -1 0 2 -29 64
-65 138 -35 73 -81 181 -101 240 -21 58 -41 115 -46 126 -4 11 -20 65 -34 120
-26 103 -29 116 -45 200 -6 28 -12 61 -15 75 -3 14 -8 45 -11 70 -3 25 -7 52
-9 60 -2 8 -7 40 -10 70 -3 30 -7 71 -10 90 -25 213 -25 873 0 995 2 11 7 47
10 80 28 277 118 642 208 845 125 283 233 445 422 635 173 175 277 255 467
358 94 53 320 142 370 147 4 1 29 7 55 15 48 14 57 16 143 30 25 4 53 9 62 10
121 23 465 23 587 0 9 -1 36 -6 61 -10 84 -13 245 -56 340 -92 446 -166 847
-539 1067 -994 54 -110 121 -280 138 -349 2 -8 19 -76 38 -150 31 -118 46
-193 62 -305 3 -16 7 -39 9 -50 2 -11 7 -54 11 -95 4 -41 8 -85 10 -98 23
-146 23 -719 0 -922 -2 -19 -7 -60 -10 -90 -3 -30 -7 -66 -10 -80 -2 -14 -7
-45 -10 -70 -3 -25 -7 -54 -9 -65 -2 -11 -7 -40 -11 -65 -10 -59 -10 -62 -30
-149 -9 -40 -18 -78 -19 -85 -12 -61 -60 -209 -103 -321 -106 -272 -236 -480
-425 -680 -305 -321 -674 -514 -1111 -579 -105 -16 -306 -19 -1449 -19 -1128
0 -1237 -2 -1226 -16 46 -61 288 -275 412 -364 404 -292 928 -493 1441 -553
33 -3 69 -8 79 -10 134 -24 739 -24 872 0 11 2 45 7 78 11 71 8 135 19 246 41
348 70 730 219 1047 409 590 354 1014 872 1237 1516 26 73 51 149 55 168 5 20
18 71 29 113 22 82 69 305 77 366 2 20 6 46 9 57 2 11 7 46 11 79 3 32 8 68
10 80 2 11 6 46 9 76 3 30 8 82 12 115 17 169 21 325 18 680 -1 215 -5 406 -7
425 -2 19 -8 64 -12 100 -3 36 -8 76 -10 90 -2 14 -6 48 -10 75 -3 28 -12 86
-21 130 -8 44 -17 96 -20 115 -9 55 -70 295 -102 400 -113 363 -334 779 -552
1034 -287 336 -567 564 -940 764 -81 43 -297 138 -325 142 -3 1 -22 8 -42 17
-95 40 -411 125 -515 138 -15 2 -35 6 -45 9 -10 3 -42 8 -72 11 -30 4 -62 8
-71 10 -9 2 -50 6 -91 10 -41 4 -92 9 -114 11 -40 5 -513 12 -518 8z"/>
<path d="M6978 13590 l-86 -5 80 -205 c44 -113 114 -290 155 -395 42 -104 85
-217 98 -250 36 -98 235 -608 250 -640 13 -30 218 -554 347 -890 39 -99 76
-193 83 -210 12 -28 450 -1147 540 -1380 56 -147 368 -942 461 -1178 41 -103
74 -190 74 -193 0 -3 7 -20 14 -37 21 -45 146 -365 146 -373 0 -3 7 -20 15
-37 8 -18 39 -96 70 -174 30 -79 80 -207 111 -285 30 -79 99 -253 151 -388 53
-135 97 -247 99 -249 3 -3 966 -5 1012 -2 6 1 12 6 12 12 0 7 -31 98 -69 203
-38 105 -105 297 -151 426 -45 129 -86 244 -90 255 -5 11 -37 99 -70 195 -108
308 -121 345 -130 365 -4 11 -45 126 -90 255 -45 129 -88 251 -95 270 -8 19
-55 152 -105 295 -51 143 -128 361 -172 485 -44 124 -95 268 -113 320 -18 52
-94 268 -170 480 -75 212 -166 468 -201 570 -36 102 -71 201 -78 220 -12 29
-49 134 -86 240 -34 96 -176 497 -195 550 -13 36 -54 151 -91 255 -76 219
-138 393 -219 620 -31 88 -99 282 -152 430 -52 149 -109 309 -127 357 l-31 88
-40 1 c-227 3 -1090 3 -1157 -1z"/>
<path d="M12922 13590 l-534 -5 -63 -170 c-35 -93 -91 -246 -125 -340 -34 -93
-64 -177 -67 -185 -4 -8 -7 -17 -8 -20 -1 -3 -7 -18 -13 -33 -7 -16 -12 -31
-12 -33 0 -3 -11 -33 -24 -67 -13 -34 -126 -341 -251 -682 -125 -341 -240
-656 -257 -700 -86 -227 -461 -1253 -465 -1273 -3 -12 -9 -25 -14 -28 -5 -3
-9 -12 -9 -21 0 -8 -6 -29 -14 -46 -24 -54 -266 -721 -266 -733 0 -6 20 -67
44 -135 24 -68 83 -234 131 -369 47 -135 97 -274 110 -310 13 -36 51 -144 85
-240 34 -96 70 -197 80 -225 11 -27 29 -80 42 -117 13 -38 26 -68 29 -68 5 0
69 157 324 805 69 176 130 329 135 340 5 11 47 117 93 235 46 118 152 386 235
595 328 830 366 925 419 1060 30 77 58 149 63 160 5 11 27 67 50 125 23 58 48
119 55 137 8 17 15 33 15 36 0 6 183 472 205 522 7 17 46 113 85 215 40 102
133 338 207 525 146 369 339 858 383 970 16 39 27 71 26 72 -6 6 -223 7 -694
3z"/>
<path d="M205 8920 c-11 -4 -3 -36 34 -150 163 -491 381 -860 696 -1176 376
-378 784 -612 1340 -770 70 -20 319 -71 384 -79 30 -4 61 -8 70 -10 9 -1 48
-6 86 -10 39 -4 79 -9 90 -11 112 -21 688 -20 840 1 17 2 57 7 90 10 84 8 184
24 320 50 181 35 445 115 582 176 24 10 45 19 48 19 3 0 59 27 124 59 706 353
1198 960 1451 1791 16 52 27 96 25 98 -3 4 -1191 6 -1268 3 -11 -1 -22 -14
-29 -33 -21 -61 -156 -318 -214 -405 -117 -180 -249 -334 -379 -440 -121 -98
-294 -197 -459 -260 -97 -37 -266 -82 -331 -89 -22 -3 -46 -7 -53 -9 -51 -18
-420 -26 -552 -12 -606 65 -1117 371 -1433 858 -53 81 -177 319 -191 367 -4
12 -15 22 -24 23 -90 3 -1236 3 -1247 -1z"/>
</g>
</svg>
